<?xml version="1.0" encoding="utf-8"?>
<!-- Generator: Adobe Illustrator 19.0.0, SVG Export Plug-In . SVG Version: 6.00 Build 0)  -->
<svg version="1.1" id="Layer_1" xmlns="http://www.w3.org/2000/svg" xmlns:xlink="http://www.w3.org/1999/xlink" x="0px" y="0px"
	 viewBox="0 0 486.7 656.6" style="enable-background:new 0 0 486.7 656.6;" xml:space="preserve">
<style type="text/css">
	.st0{fill:#1768B3;}
	.st1{opacity:0.75;fill:#1768B3;}
</style>
<g id="XMLID_128_">
	<path id="XMLID_149_" class="st0" d="M96.4,528.5H84.9V554h11.5c3.3,0,5.1-1.8,5.1-4.9v-15.6C101.5,530.3,99.8,528.5,96.4,528.5z"
		/>
	<path id="XMLID_150_" class="st0" d="M256.4,528.5h-11.6v67.8h11.6c3.3,0,5.1-1.6,5.1-5.1v-57.6
		C261.4,530.3,259.7,528.5,256.4,528.5z"/>
	<path id="XMLID_159_" class="st0" d="M382.4,528.5h-12.5v33.9h12.5c3.3,0,5.1-1.8,5.1-5.1v-23.8
		C387.5,530.3,385.7,528.5,382.4,528.5z"/>
	<path id="XMLID_160_" class="st0" d="M96.4,570.8H84.9v25.6h11.5c3.3,0,5.1-1.6,5.1-5.1v-15.4C101.5,572.5,99.8,570.8,96.4,570.8z"
		/>
	<g id="XMLID_121_">
		<path id="XMLID_122_" class="st1" d="M449.8,643.4h-29.7c-2.4,0-4.4-2-4.4-4.4V34c0-2.4,2-4.4,4.4-4.4h29.7c2.4,0,4.4,2,4.4,4.4
			v605C454.2,641.5,452.3,643.4,449.8,643.4z"/>
		<path id="XMLID_123_" class="st1" d="M469.8,643.4h-47.6c-3,0-5.4-2.4-5.4-5.4V35c0-3,2.4-5.4,5.4-5.4h47.6c3,0,5.4,2.4,5.4,5.4
			v603C475.2,641,472.8,643.4,469.8,643.4z"/>
		<path id="XMLID_144_" class="st0" d="M418.2,29.6H99.5v-3.4c0-3.5-2.8-6.3-6.3-6.3H60.7c-3.5,0-6.3,2.8-6.3,6.3v3.4H31.5
			c-7.9,0-14.4,6.4-14.4,14.4v585c0,7.9,6.4,14.4,14.4,14.4h386.7c7.9,0,14.4-6.4,14.4-14.4V44C432.5,36.1,426.1,29.6,418.2,29.6z
			 M56.5,26.2c0-2.3,1.9-4.1,4.1-4.1h32.5c2.3,0,4.1,1.9,4.1,4.1v123.4c0,2.3-1.9,4.1-4.1,4.1H60.7c-2.3,0-4.1-1.9-4.1-4.1V26.2z
			 M61.2,195.4v-23.8c0-2.9,2.4-5.3,5.3-5.3h20.7c2.9,0,5.3,2.4,5.3,5.3v23.8c0,2.9-2.4,5.3-5.3,5.3H66.6
			C63.6,200.8,61.2,198.4,61.2,195.4z M118.3,553.3c0,4.7-3.4,8.2-8,9v0.3c4.6,0.8,8,4.3,8,9v23.3c0,11.9-6.5,18.2-18.4,18.2H69.6
			c-1.3,0-2-0.8-2-2v-97.2c0-1.4,0.8-2,2-2h30.4c11.9,0,18.4,6.3,18.4,18.2V553.3z M148.2,611c0,1.3-0.8,2-2,2H133c-1.4,0-2-0.8-2-2
			v-97.2c0-1.3,0.6-2,2-2h13.2c1.3,0,2,0.8,2,2V611z M214.9,611c0,1.3-0.8,2-2,2h-12.5c-1.1,0-1.9-0.5-2.3-1.6l-19.4-54H178V611
			c0,1.3-0.6,2-2,2h-13.2c-1.3,0-2-0.8-2-2v-97.2c0-1.3,0.8-2,2-2h12.5c1.1,0,1.9,0.5,2.3,1.6l19.2,53.8h0.8v-53.4c0-1.3,0.6-2,2-2
			h13.2c1.3,0,2,0.8,2,2V611z M278.2,594.8c0,11.9-6.3,18.2-18.2,18.2h-30.4c-1.4,0-2-0.6-2-2v-97.2c0-1.3,0.6-2,2-2h30.4
			c11.9,0,18.2,6.5,18.2,18.4V594.8z M341.3,526.5c0,1.3-0.5,2.2-2,2.2h-31.6v25.3h24.2c1.3,0,2,0.8,2,2.1v12.5c0,1.4-0.8,2.2-2,2.2
			h-24.2v25.6h31.6c1.5,0,2,0.6,2,2V611c0,1.3-0.5,2-2,2h-46.6c-1.1,0-1.9-0.8-1.9-2v-97.2c0-1.3,0.8-2,1.9-2h46.6c1.5,0,2,0.8,2,2
			V526.5z M404.7,560.9c0,8.5-3.2,14-9.2,16.7l8.7,33.2c0.4,1.5-0.4,2.3-1.8,2.3h-13.2c-1.3,0-1.9-0.6-2.1-1.8l-8.5-32.1h-8.7V611
			c0,1.3-0.8,2-2,2h-13.2c-1.3,0-2-0.8-2-2v-97.2c0-1.3,0.8-2,2-2h31.8c11.9,0,18.2,6.3,18.2,18.2V560.9z"/>
	</g>
</g>
</svg>
