<?xml version="1.0" encoding="utf-8"?>
<!-- Generator: Adobe Illustrator 19.0.0, SVG Export Plug-In . SVG Version: 6.00 Build 0)  -->
<svg version="1.1" id="Layer_1" xmlns="http://www.w3.org/2000/svg" xmlns:xlink="http://www.w3.org/1999/xlink" x="0px" y="0px"
	 viewBox="0 0 1000 319.3" style="enable-background:new 0 0 1000 319.3;" xml:space="preserve">
<style type="text/css">
	.st0{opacity:0.75;fill:#1768B3;}
	.st1{fill:none;stroke:#1768B3;stroke-miterlimit:10;}
	.st2{fill:#1768B3;}
	.st3{font-family:'Norwester-Regular';}
	.st4{font-size:250.4958px;}
</style>
<g id="XMLID_1_">
	<g id="XMLID_125_">
		<path id="XMLID_131_" class="st0" d="M216.6,303.2H86.7c-3.1,0-5.7-2.5-5.7-5.7V29.4c0-3.1,2.5-5.7,5.7-5.7h129.9
			c3.1,0,5.7,2.5,5.7,5.7v268.2C222.3,300.7,219.7,303.2,216.6,303.2z"/>
		<path id="XMLID_129_" class="st0" d="M226.2,303.2H96.3c-3.1,0-5.7-2.5-5.7-5.7V29.4c0-3.1,2.5-5.7,5.7-5.7h129.9
			c3.1,0,5.7,2.5,5.7,5.7v268.2C231.8,300.7,229.3,303.2,226.2,303.2z"/>
		<path id="XMLID_126_" class="st1" d="M57.9,80.8H43.1c-1.3,0-2.4-1.1-2.4-2.4V22.2c0-1.3,1.1-2.4,2.4-2.4h14.8
			c1.3,0,2.4,1.1,2.4,2.4v56.2C60.2,79.7,59.2,80.8,57.9,80.8z"/>
		<path id="XMLID_134_" class="st2" d="M205.8,23.8H60.2v54.6c0,1.3-1.1,2.4-2.4,2.4H43.1c-1.3,0-2.4-1.1-2.4-2.4V23.8H29.8
			c-3.6,0-6.6,2.9-6.6,6.6v266.4c0,3.6,2.9,6.6,6.6,6.6h176.1c3.6,0,6.6-2.9,6.6-6.6V30.3C212.4,26.7,209.5,23.8,205.8,23.8z
			 M57.6,99.3c0,1.3-1.1,2.4-2.4,2.4h-9.4c-1.3,0-2.4-1.1-2.4-2.4V88.4c0-1.3,1.1-2.4,2.4-2.4h9.4c1.3,0,2.4,1.1,2.4,2.4V99.3z"/>
	</g>
	<text id="XMLID_124_" transform="matrix(1 0 0 1 284.4202 248.7001)" class="st2 st3 st4">BINDER</text>
</g>
</svg>
